<svg width="168" height="36" viewBox="0 0 168 36" fill="none" xmlns="http://www.w3.org/2000/svg">
<path fill-rule="evenodd" clip-rule="evenodd" d="M0.0570916 0.2377C-0.023622 0.368305 -0.0181366 0.662165 0.0696297 0.890723C0.192398 1.21044 0.613728 1.30605 1.90201 1.30605H3.5748L3.43818 21.811L1.74032 21.9416C0.463272 22.0398 0.0424639 22.1693 0.0424639 22.464C0.0424639 22.7973 0.850123 22.8663 5.46256 22.9263C10.75 22.9953 10.8826 22.9841 10.8826 22.4692C10.8826 21.9938 10.7142 21.9416 9.18479 21.9416H7.48693V11.1549L9.7618 11.3297C13.3163 11.6029 13.8591 12.2238 14.2922 16.5121C14.7441 20.985 15.2326 22.1033 17.078 22.8895C18.889 23.6611 22.5331 23.0512 22.3226 22.0118C22.227 21.5404 21.9496 21.5142 20.3747 21.829C19.1431 22.0751 18.768 21.3037 18.4483 17.8693C18.3026 16.3018 18.0547 14.6081 17.8977 14.1053C17.5072 12.8551 16.2424 11.588 14.8564 11.0588L13.7019 10.6179L14.597 10.1587C18.7981 8.00345 18.5478 2.66224 14.1496 0.614103C12.8937 0.0292554 12.5904 0.00496303 6.5228 0.00261215C3.00667 0.0010449 0.13885 0.105528 0.0570916 0.2377ZM79.8889 0.587721C79.9639 1.11562 80.1386 1.18328 81.605 1.25328L83.2376 1.33086V21.9416H81.5397C80.0161 21.9416 79.8419 21.9951 79.8419 22.464C79.8419 22.9694 80.0161 22.9864 85.1967 22.9864C90.3336 22.9864 90.5515 22.9658 90.5515 22.4765C90.5515 22.0333 90.3375 21.9562 88.9189 21.8888L87.2864 21.811L87.1442 12.0156H96.8205V21.9416H95.1226C93.599 21.9416 93.4248 21.9951 93.4248 22.464C93.4248 22.9694 93.599 22.9864 98.7796 22.9864C103.96 22.9864 104.134 22.9694 104.134 22.464C104.134 21.9951 103.96 21.9416 102.436 21.9416H100.739V1.33086L102.371 1.25328C103.838 1.18328 104.012 1.11562 104.087 0.587721L104.171 0H93.3885L93.4718 0.587721C93.5467 1.11562 93.7215 1.18328 95.1879 1.25328L96.8205 1.33086V10.7096H87.1557V1.30605H88.8536C90.4906 1.30605 90.5515 1.28254 90.5515 0.653023V0H79.8056L79.8889 0.587721ZM7.68283 1.19425C7.57495 1.3037 7.48693 3.38893 7.48693 5.82836V10.2637L9.45906 10.097C10.5436 10.0054 11.659 9.80841 11.9377 9.65926C12.8746 9.15773 13.3404 7.8496 13.3307 5.7466C13.3203 3.49707 12.8404 2.30517 11.7107 1.72085C10.8597 1.28071 7.96964 0.903 7.68283 1.19425ZM114.372 2.88323C110.207 3.73137 106.596 7.92404 106.285 12.2737C105.91 17.5125 109.019 21.9531 113.907 23.1593C115.358 23.5174 115.94 23.543 117.222 23.3043C120.411 22.7114 123.04 20.6541 124.565 17.5585C125.37 15.9228 125.423 15.6464 125.423 13.0667C125.423 10.5377 125.358 10.1819 124.618 8.61912C122.7 4.57195 118.267 2.0902 114.372 2.88323ZM22.4221 3.71622C22.4957 4.23551 22.6786 4.31988 23.8778 4.38884L25.2492 4.46798L25.2554 11.1803C25.2588 14.8722 25.3685 18.3544 25.4994 18.9183C26.2812 22.2895 29.7819 24.0427 34.1666 23.2591C35.7004 22.9851 36.1392 22.7733 37.2585 21.7671C39.2212 20.0024 39.3545 19.3303 39.3545 11.1983V4.46798L40.7258 4.38884C41.9206 4.32014 42.1079 4.2342 42.1807 3.72223C42.2638 3.13738 42.2466 3.13451 38.7014 3.13451C35.1563 3.13451 35.1391 3.13738 35.2221 3.72223C35.295 4.2342 35.4823 4.32014 36.6771 4.38884L38.0484 4.46798L38.0427 11.4415C38.0361 19.3347 37.9217 19.9086 36.0731 21.3188C35.1699 22.0079 34.9027 22.0722 32.9384 22.0722C31.1606 22.0722 30.6899 21.9823 30.2043 21.5498C28.9074 20.395 28.8011 19.7106 28.6956 11.8336L28.5971 4.46798L30.1228 4.3891C31.4482 4.3204 31.6488 4.24125 31.6488 3.78753C31.6488 3.28732 31.4508 3.26198 26.9932 3.1938L22.338 3.12223L22.4221 3.71622ZM42.9066 3.35393C42.8197 3.49472 42.8202 3.79668 42.9079 4.02523C43.0263 4.33372 43.4293 4.44056 44.476 4.44056H45.8847V21.9155L44.3827 21.9938C43.2567 22.0526 42.8808 22.1701 42.8808 22.464C42.8808 22.7887 43.6203 22.8892 47.1907 23.0504C49.9162 23.1734 52.1143 23.1442 53.1696 22.9713C56.768 22.3807 58.6863 20.6418 58.8932 17.7834C59.0611 15.4605 57.9716 13.6944 55.8213 12.8037C55.061 12.4887 54.7405 12.0156 55.2874 12.0156C55.8177 12.0156 57.6195 10.1239 57.9006 9.27188C58.5447 7.32039 57.5304 5.16149 55.4188 3.98971C54.1235 3.27112 54.0673 3.26433 48.5887 3.18153C45.17 3.12981 43.0046 3.19537 42.9066 3.35393ZM60.037 3.72223C60.108 4.22245 60.3029 4.32171 61.3454 4.38884L62.5702 4.46798L68.3487 14.6371V21.9416H66.912C65.6496 21.9416 65.4754 22.0048 65.4754 22.464C65.4754 22.9671 65.6496 22.9864 70.1771 22.9864C74.7047 22.9864 74.8789 22.9671 74.8789 22.464C74.8789 22.0048 74.7047 21.9416 73.4423 21.9416H72.0056V13.6166L76.838 4.45545L78.0265 4.44813C79.286 4.44003 79.8907 4.08792 79.663 3.49446C79.5564 3.21679 78.819 3.13451 76.4336 3.13451C74.7334 3.13451 73.2764 3.24135 73.1957 3.37221C72.8402 3.94713 73.3892 4.44056 74.3844 4.44056C74.9437 4.44056 75.4013 4.50717 75.4013 4.5884C75.4013 4.88722 71.3468 12.2695 71.181 12.2732C71.0159 12.2766 66.7814 4.90525 66.7814 4.61426C66.7814 4.53616 67.2223 4.43559 67.761 4.39093C68.5477 4.32589 68.757 4.19424 68.8241 3.72223L68.9074 3.13451H59.9537L60.037 3.72223ZM127.481 3.51379C127.225 4.18091 127.641 4.44056 128.965 4.44056H130.255V21.9416H128.819C127.556 21.9416 127.382 22.0048 127.382 22.464C127.382 22.9606 127.556 22.9864 130.908 22.9864C134.26 22.9864 134.435 22.9606 134.435 22.464C134.435 22.0048 134.26 21.9416 132.998 21.9416H131.561V14.4535C131.561 10.3353 131.615 7.01921 131.681 7.08504C131.746 7.1506 133.021 10.726 134.514 15.03C136.195 19.8767 137.368 22.8822 137.595 22.9255C137.856 22.9752 138.556 21.2491 140.033 16.9177C141.173 13.575 142.431 9.9586 142.829 8.88111L143.552 6.92204L143.577 21.9416H142.14C140.878 21.9416 140.704 22.0048 140.704 22.464C140.704 22.9671 140.878 22.9864 145.405 22.9864C149.933 22.9864 150.107 22.9671 150.107 22.464C150.107 22.0048 149.933 21.9416 148.671 21.9416H147.234V4.46798L148.605 4.38884C149.806 4.31988 149.987 4.23577 150.061 3.71439L150.146 3.11858L143.493 3.26511L142.095 7.31386C141.327 9.54067 140.269 12.5838 139.745 14.076L138.793 16.7895L134.113 3.13451H130.87C128.276 3.13451 127.598 3.21052 127.481 3.51379ZM150.938 3.71831C151.011 4.23498 151.195 4.31988 152.393 4.38884L153.764 4.46798V21.9416H152.327C151.062 21.9416 150.891 22.0043 150.891 22.4676C150.891 22.9854 151.023 22.9924 159.445 22.9248L168 22.8558V19.7213C168 16.7845 167.968 16.5868 167.489 16.5868C167.112 16.5868 166.893 16.8804 166.653 17.7113C166.183 19.3326 165.371 20.5224 164.265 21.2086C163.44 21.7203 162.868 21.8219 160.36 21.9032L157.421 21.998V13.0605H158.584C160.629 13.0605 161.471 13.8216 161.978 16.1307C162.109 16.7281 162.312 16.9786 162.666 16.9786C163.142 16.9786 163.168 16.7412 163.168 12.3884C163.168 8.2469 163.125 7.80624 162.733 7.88251C162.478 7.93188 162.123 8.49034 161.876 9.23009C161.226 11.1735 160.525 11.7544 158.83 11.7544H157.421V4.39563L160.405 4.48339C163.162 4.56437 163.442 4.62079 164.097 5.22418C164.486 5.58335 165.086 6.50254 165.428 7.26684C165.881 8.27694 166.174 8.6327 166.503 8.56923C166.896 8.49348 166.955 8.1398 166.955 5.87355V3.26511L150.853 3.12694L150.938 3.71831ZM113.746 4.2739C111.253 5.38039 110.149 8.15913 110.144 13.3389C110.139 19.1717 111.682 21.9047 115.122 22.1534C117.271 22.3088 118.368 22.0424 119.434 21.1062C121.144 19.6051 121.66 17.6993 121.654 12.9113C121.648 8.05569 120.693 5.56532 118.416 4.46302C117.151 3.85022 114.905 3.75932 113.746 4.2739ZM49.4763 4.33163C49.3687 4.43951 49.2804 6.15357 49.2804 8.14111V11.7544H50.9636C52.3624 11.7544 52.7699 11.6489 53.3733 11.1296C54.0245 10.5696 54.1099 10.3026 54.1982 8.55591C54.3029 6.484 53.9062 5.21974 53 4.73598C52.3666 4.39798 49.7143 4.09367 49.4763 4.33163ZM49.2804 21.9988L51.223 21.9006C52.8292 21.8196 53.28 21.6947 53.8275 21.1807C54.7731 20.2923 55.1095 19.0236 54.9714 16.8684C54.7781 13.859 53.9383 13.0605 50.966 13.0605H49.2804V21.9988ZM0.306546 33.1686C0.214862 33.317 0.299755 33.4998 0.49514 33.5748C1.15495 33.8279 8.40429 33.5779 8.33638 33.3042C8.24705 32.9424 0.527007 32.8123 0.306546 33.1686ZM159.122 33.1686C159.03 33.317 159.115 33.4998 159.31 33.5748C159.97 33.8279 167.219 33.5779 167.152 33.3042C167.062 32.9424 159.342 32.8123 159.122 33.1686Z" fill="#BF3448"/>
<path d="M15.2264 35.1128H16.9452V35.7857H14.3926V30.7025H15.2264V35.1128Z" fill="#BF3448"/>
<path d="M22.4184 30.7025V33.9426C22.4184 34.3278 22.5184 34.6179 22.7183 34.8129C22.9231 35.008 23.2059 35.1055 23.5667 35.1055C23.9324 35.1055 24.2152 35.008 24.4151 34.8129C24.6199 34.6179 24.7223 34.3278 24.7223 33.9426V30.7025H25.556V33.9279C25.556 34.3424 25.4658 34.6935 25.2854 34.9811C25.105 35.2688 24.8637 35.4834 24.5614 35.6248C24.2591 35.7662 23.9251 35.8369 23.5594 35.8369C23.1937 35.8369 22.8597 35.7662 22.5574 35.6248C22.2599 35.4834 22.0234 35.2688 21.8479 34.9811C21.6724 34.6935 21.5846 34.3424 21.5846 33.9279V30.7025H22.4184Z" fill="#BF3448"/>
<path d="M32.9242 33.2478L34.504 35.7857H33.5679L32.4196 33.9426L31.3444 35.7857H30.4156L31.9954 33.2478L30.4083 30.7025H31.3444L32.5 32.5602L33.5825 30.7025H34.5113L32.9242 33.2478Z" fill="#BF3448"/>
<path d="M40.1954 30.7025V33.9426C40.1954 34.3278 40.2953 34.6179 40.4952 34.8129C40.7 35.008 40.9828 35.1055 41.3436 35.1055C41.7093 35.1055 41.9921 35.008 42.192 34.8129C42.3968 34.6179 42.4992 34.3278 42.4992 33.9426V30.7025H43.333V33.9279C43.333 34.3424 43.2428 34.6935 43.0624 34.9811C42.882 35.2688 42.6406 35.4834 42.3383 35.6248C42.036 35.7662 41.702 35.8369 41.3363 35.8369C40.9706 35.8369 40.6366 35.7662 40.3343 35.6248C40.0369 35.4834 39.8004 35.2688 39.6249 34.9811C39.4493 34.6935 39.3616 34.3424 39.3616 33.9279V30.7025H40.1954Z" fill="#BF3448"/>
<path d="M51.0084 35.7857L49.8382 33.7524H49.2019V35.7857H48.3681V30.7025H50.1234C50.5135 30.7025 50.8426 30.7708 51.1108 30.9073C51.3838 31.0438 51.5862 31.2267 51.7178 31.4559C51.8544 31.685 51.9226 31.941 51.9226 32.2238C51.9226 32.5554 51.8251 32.8577 51.6301 33.1307C51.4399 33.3989 51.1449 33.5817 50.7451 33.6793L52.0031 35.7857H51.0084ZM49.2019 33.0868H50.1234C50.4355 33.0868 50.6695 33.0088 50.8255 32.8528C50.9864 32.6968 51.0669 32.4871 51.0669 32.2238C51.0669 31.9605 50.9889 31.7557 50.8328 31.6094C50.6768 31.4583 50.4403 31.3827 50.1234 31.3827H49.2019V33.0868Z" fill="#BF3448"/>
<path d="M60.7054 30.7025L59.0232 33.9426V35.7857H58.1894V33.9426L56.4999 30.7025H57.4288L58.6063 33.1966L59.7838 30.7025H60.7054Z" fill="#BF3448"/>
<path d="M73.8062 35.7857L72.636 33.7524H71.9997V35.7857H71.1659V30.7025H72.9212C73.3113 30.7025 73.6404 30.7708 73.9086 30.9073C74.1816 31.0438 74.384 31.2267 74.5156 31.4559C74.6522 31.685 74.7204 31.941 74.7204 32.2238C74.7204 32.5554 74.6229 32.8577 74.4279 33.1307C74.2377 33.3989 73.9427 33.5817 73.5429 33.6793L74.8009 35.7857H73.8062ZM71.9997 33.0868H72.9212C73.2333 33.0868 73.4673 33.0088 73.6234 32.8528C73.7843 32.6968 73.8647 32.4871 73.8647 32.2238C73.8647 31.9605 73.7867 31.7557 73.6307 31.6094C73.4746 31.4583 73.2382 31.3827 72.9212 31.3827H71.9997V33.0868Z" fill="#BF3448"/>
<path d="M80.5703 31.3754V32.8674H82.3256V33.5476H80.5703V35.1055H82.5451V35.7857H79.7365V30.6952H82.5451V31.3754H80.5703Z" fill="#BF3448"/>
<path d="M90.586 34.7471H88.4577L88.092 35.7857H87.2216L89.0428 30.6952H90.0082L91.8294 35.7857H90.9517L90.586 34.7471ZM90.352 34.0669L89.5255 31.7045L88.6917 34.0669H90.352Z" fill="#BF3448"/>
<path d="M97.4045 35.1128H99.1232V35.7857H96.5707V30.7025H97.4045V35.1128Z" fill="#BF3448"/>
<path d="M110.453 31.3754V32.8674H112.208V33.5476H110.453V35.1055H112.428V35.7857H109.619V30.6952H112.428V31.3754H110.453Z" fill="#BF3448"/>
<path d="M119.079 35.8369C118.738 35.8369 118.431 35.7783 118.158 35.6613C117.885 35.5394 117.67 35.3688 117.514 35.1494C117.358 34.9299 117.28 34.674 117.28 34.3814H118.172C118.192 34.6008 118.277 34.7812 118.428 34.9226C118.584 35.064 118.801 35.1347 119.079 35.1347C119.367 35.1347 119.591 35.0665 119.752 34.9299C119.913 34.7885 119.993 34.6081 119.993 34.3887C119.993 34.2181 119.942 34.0791 119.84 33.9718C119.742 33.8646 119.618 33.7817 119.467 33.7232C119.321 33.6646 119.116 33.6013 118.852 33.533C118.521 33.4452 118.25 33.3575 118.041 33.2697C117.836 33.177 117.66 33.0357 117.514 32.8455C117.368 32.6553 117.295 32.4018 117.295 32.0848C117.295 31.7923 117.368 31.5363 117.514 31.3169C117.66 31.0975 117.865 30.9293 118.128 30.8122C118.392 30.6952 118.696 30.6367 119.043 30.6367C119.535 30.6367 119.937 30.761 120.249 31.0097C120.566 31.2535 120.742 31.5899 120.776 32.019H119.854C119.84 31.8337 119.752 31.6753 119.591 31.5436C119.43 31.412 119.218 31.3461 118.955 31.3461C118.716 31.3461 118.521 31.4071 118.37 31.529C118.219 31.6509 118.143 31.8264 118.143 32.0556C118.143 32.2116 118.189 32.3408 118.282 32.4432C118.38 32.5407 118.501 32.6188 118.648 32.6773C118.794 32.7358 118.994 32.7992 119.247 32.8674C119.584 32.9601 119.857 33.0527 120.067 33.1454C120.281 33.238 120.462 33.3818 120.608 33.5769C120.759 33.767 120.835 34.023 120.835 34.3448C120.835 34.6033 120.764 34.847 120.622 35.0762C120.486 35.3054 120.284 35.4907 120.015 35.6321C119.752 35.7686 119.44 35.8369 119.079 35.8369Z" fill="#BF3448"/>
<path d="M129.052 30.7025V31.3827H127.699V35.7857H126.865V31.3827H125.505V30.7025H129.052Z" fill="#BF3448"/>
<path d="M136.91 34.7471H134.782L134.416 35.7857H133.546L135.367 30.6952H136.332L138.154 35.7857H137.276L136.91 34.7471ZM136.676 34.0669L135.85 31.7045L135.016 34.0669H136.676Z" fill="#BF3448"/>
<path d="M146.179 30.7025V31.3827H144.826V35.7857H143.992V31.3827H142.632V30.7025H146.179Z" fill="#BF3448"/>
<path d="M151.806 31.3754V32.8674H153.562V33.5476H151.806V35.1055H153.781V35.7857H150.973V30.6952H153.781V31.3754H151.806Z" fill="#BF3448"/>
</svg>
