<svg width="24" height="24" viewBox="0 0 24 24" fill="none" xmlns="http://www.w3.org/2000/svg">
  <path d="M9.5 2C9.5 2.83 10.17 3.5 11 3.5C11.83 3.5 12.5 2.83 12.5 2V1H9.5V2Z" fill="#030A1B"/>
  <path d="M11 4C9.9 4 9 4.9 9 6V10H8V21H9V23H11V21H13V10H12V6C12 4.9 11.1 4 11 4Z" fill="#030A1B"/>
  <path d="M16 2V8C16 9.1 16.9 10 18 10C19.1 10 20 9.1 20 8V2H16Z" fill="#030A1B"/>
  <path d="M18 11C17.4 11 16.8 11.2 16.3 11.5V21H17.7V23H19.3V21H20.7V11.5C20.2 11.2 19.6 11 18 11Z" fill="#030A1B"/>
</svg>




