<svg width="24" height="24" viewBox="0 0 24 24" fill="none" xmlns="http://www.w3.org/2000/svg">
<path d="M12 2C13.1 2 14 2.9 14 4C14 5.1 13.1 6 12 6C10.9 6 10 5.1 10 4C10 2.9 10.9 2 12 2ZM12 18C13.1 18 14 18.9 14 20C14 21.1 13.1 22 12 22C10.9 22 10 21.1 10 20C10 18.9 10.9 18 12 18ZM12 10C13.1 10 14 10.9 14 12C14 13.1 13.1 14 12 14C10.9 14 10 13.1 10 12C10 10.9 10.9 10 12 10ZM4 12C5.1 12 6 12.9 6 14C6 15.1 5.1 16 4 16C2.9 16 2 15.1 2 14C2 12.9 2.9 12 4 12ZM20 12C21.1 12 22 12.9 22 14C22 15.1 21.1 16 20 16C18.9 16 18 15.1 18 14C18 12.9 18.9 12 20 12ZM6.34 6.34C7.44 6.34 8.34 7.24 8.34 8.34C8.34 9.44 7.44 10.34 6.34 10.34C5.24 10.34 4.34 9.44 4.34 8.34C4.34 7.24 5.24 6.34 6.34 6.34ZM17.66 6.34C18.76 6.34 19.66 7.24 19.66 8.34C19.66 9.44 18.76 10.34 17.66 10.34C16.56 10.34 15.66 9.44 15.66 8.34C15.66 7.24 16.56 6.34 17.66 6.34ZM6.34 13.66C7.44 13.66 8.34 14.56 8.34 15.66C8.34 16.76 7.44 17.66 6.34 17.66C5.24 17.66 4.34 16.76 4.34 15.66C4.34 14.56 5.24 13.66 6.34 13.66ZM17.66 13.66C18.76 13.66 19.66 14.56 19.66 15.66C19.66 16.76 18.76 17.66 17.66 17.66C16.56 17.66 15.66 16.76 15.66 15.66C15.66 14.56 16.56 13.66 17.66 13.66Z" fill="#FE753F"/>
</svg>

