<svg width="28" height="57" viewBox="0 0 28 57" fill="none" xmlns="http://www.w3.org/2000/svg">
<path d="M1.83716 45.2277C0.236653 45.8989 -0.434009 47.8092 0.288283 49.358L2.81811 54.6237C3.54092 56.1209 5.29631 56.7921 6.84518 56.1209C11.182 54.2623 14.8998 51.8357 17.9454 48.9445C21.6116 45.4337 24.1409 41.4583 25.4838 37.0698C26.8262 32.7335 27.4968 26.6923 27.4968 18.948L27.4968 3.09782C27.4968 1.39405 26.1029 6.85427e-05 24.3991 6.83937e-05L4.10884 6.66199e-05C2.40508 6.6471e-05 1.0111 1.39405 1.0111 3.09781L1.01109 23.3881C1.01109 25.0923 2.40508 26.4858 4.10884 26.4858L13.8667 26.4858C13.7635 31.7009 12.5239 35.8823 10.2527 39.0322C8.39406 41.5615 5.60608 43.6267 1.83716 45.2277Z" fill="#2E6EFF"/>
</svg>

